<svg xmlns="http://www.w3.org/2000/svg" viewBox="0 0 663.4 109.8"><title>Ativo 1</title><g id="Camada_2" data-name="Camada 2"><g id="Layer_1" data-name="Layer 1"><polygon points="627.3 1.8 609.8 1.8 603.9 12.2 621.3 12.2 629.4 26.3 621.3 40.4 588.3 40.4 582.3 50.8 627.3 50.8 641.5 26.3 627.3 1.8" fill="#fff"/><polygon points="649.3 1.8 637.2 1.8 651.4 26.3 637.3 50.8 649.3 50.8 663.4 26.3 649.3 1.8" fill="#fff"/><polygon points="588 1.8 560.4 50.8 572.4 50.8 600 1.8 588 1.8" fill="#fff"/><polygon points="59.8 28.1 74.9 54.3 104.3 54.3 104.3 44 80.9 44 71.7 28.1 80.9 12.1 104.3 12.1 104.3 1.8 74.9 1.8 59.8 28.1" fill="#fff"/><path d="M329.1,19.1,319,1.8H281.9V54.3h10.3V36.5h14.6l10.4,17.8h11.9L318.7,36.5h.3Zm-36.9-7h20.9l4.1,7-4.1,7.1H292.2Z" fill="#fff"/><polygon points="118.8 1.8 118.8 12.1 118.8 22.9 118.8 33.2 118.8 44 118.8 54.3 129.1 54.3 158.7 54.3 158.7 44 129.1 44 129.1 33.2 144.9 33.2 144.9 22.9 129.1 22.9 129.1 12.1 158.7 12.1 158.7 1.8 129.1 1.8 118.8 1.8" fill="#fff"/><polygon points="226.3 1.8 226.3 12.1 226.3 22.9 226.3 33.2 226.3 44 226.3 54.3 236.6 54.3 266.2 54.3 266.2 44 236.6 44 236.6 33.2 252.4 33.2 252.4 22.9 236.6 22.9 236.6 12.1 266.2 12.1 266.2 1.8 236.6 1.8 226.3 1.8" fill="#fff"/><polygon points="397.3 0 397.3 10.3 420.7 10.3 429.9 26.3 420.7 42.2 397.3 42.2 397.3 52.6 426.6 52.6 441.8 26.3 426.6 0 397.3 0" fill="#fff"/><polygon points="452.7 0 452.7 10.3 452.7 21.1 452.7 31.4 452.7 42.2 452.7 52.6 463 52.6 492.6 52.6 492.6 42.2 463 42.2 463 31.4 478.8 31.4 478.8 21.1 463 21.1 463 10.3 492.6 10.3 492.6 0 463 0 452.7 0" fill="#fff"/><polygon points="526.4 33.4 512 0 500.1 0 523.6 52.6 523.6 52.6 529.1 52.6 529.1 52.5 529.2 52.6 552.7 0 540.8 0 526.4 33.4" fill="#fff"/><polygon points="184.5 0 174.2 0 174.2 44 174.2 52.6 174.2 54.3 214.1 54.3 214.1 44 184.5 44 184.5 0" fill="#fff"/><polygon points="364 0 364 0 358.5 0 358.5 0 358.4 0 334.9 52.6 346.8 52.6 361.2 19.2 375.6 52.6 387.5 52.6 364 0" fill="#fff"/><polygon points="29.1 0 29.1 0 23.5 0 23.5 0 23.5 0 0 52.6 11.9 52.6 26.3 19.2 40.7 52.6 52.6 52.6 29.1 0" fill="#fff"/><path d="M5.8,104.9v4.7H2.4V89H5.2l.3,1.7h.1a7.1,7.1,0,0,1,2.2-1.5,5.4,5.4,0,0,1,2.5-.6,5.1,5.1,0,0,1,2.5.6,4,4,0,0,1,1.9,1.5,6.7,6.7,0,0,1,1.2,2.4,9.5,9.5,0,0,1,.4,3,11.6,11.6,0,0,1-.5,3.4,8.7,8.7,0,0,1-1.5,2.5,6.5,6.5,0,0,1-2.1,1.6,6.9,6.9,0,0,1-2.4.5,5.4,5.4,0,0,1-2.1-.5,8.2,8.2,0,0,1-2-1.2Zm0-5a5,5,0,0,0,1.7,1l1.6.3a3.4,3.4,0,0,0,2.6-1.2,5.9,5.9,0,0,0,1-3.8,5.9,5.9,0,0,0-.8-3.5,2.9,2.9,0,0,0-2.6-1.2,3.8,3.8,0,0,0-1.7.4,5.5,5.5,0,0,0-1.8,1.4Z" fill="#fff"/><path d="M22.5,96.4a8.8,8.8,0,0,1,.6-3.3,8.4,8.4,0,0,1,1.6-2.4,6.1,6.1,0,0,1,2.4-1.5,6.8,6.8,0,0,1,5.6,0,6.1,6.1,0,0,1,2.4,1.5,8.4,8.4,0,0,1,1.6,2.4,9.4,9.4,0,0,1,0,6.6,10,10,0,0,1-1.6,2.4,9.7,9.7,0,0,1-2.4,1.5,8.1,8.1,0,0,1-5.6,0,9.7,9.7,0,0,1-2.4-1.5,10,10,0,0,1-1.6-2.4A8.8,8.8,0,0,1,22.5,96.4Zm3.6,0a5.4,5.4,0,0,0,1,3.5,3.5,3.5,0,0,0,5.6,0,5.4,5.4,0,0,0,1-3.5,5.7,5.7,0,0,0-1-3.6,3.3,3.3,0,0,0-2.8-1.3,3.3,3.3,0,0,0-2.8,1.3A5.7,5.7,0,0,0,26.1,96.4Z" fill="#fff"/><path d="M42.1,89h3.4l1.4,7.7.3,2.1.3,2.1h.1l.3-2.1c.1-.7.3-1.4.4-2.1l1.4-6.3h2.6l1.4,6.3c.1.7.3,1.4.4,2.1s.3,1.4.4,2.1h.1l.3-2.1.3-2.1L56.5,89h3.2L57,103.7H52.9l-1.2-6.1a15.5,15.5,0,0,1-.4-2.1L51,93.3h-.2a11.1,11.1,0,0,0-.2,1.9c-.1.6-.3,1.5-.4,2.4l-1.3,6.1h-4Z" fill="#fff"/><path d="M64.8,96.4a8.8,8.8,0,0,1,.6-3.3,8.1,8.1,0,0,1,1.7-2.4,6.1,6.1,0,0,1,2.4-1.5,7.1,7.1,0,0,1,2.8-.6,6.5,6.5,0,0,1,2.9.6,5.5,5.5,0,0,1,2.2,1.4,6.1,6.1,0,0,1,1.3,2.2,8.7,8.7,0,0,1,.5,2.8c0,.4-.1.7-.1,1a1.5,1.5,0,0,1-.1.7H68.3a4.1,4.1,0,0,0,1.6,3.1,5.3,5.3,0,0,0,3.4,1,7.6,7.6,0,0,0,2.1-.3l2-.9,1.2,2.2a11.1,11.1,0,0,1-2.7,1.2,10.6,10.6,0,0,1-3.1.5,10.1,10.1,0,0,1-3.1-.5,9.3,9.3,0,0,1-2.6-1.5,7.4,7.4,0,0,1-1.7-2.5A7.9,7.9,0,0,1,64.8,96.4ZM76,95a3.7,3.7,0,0,0-.9-2.7,3.3,3.3,0,0,0-2.7-1,4.4,4.4,0,0,0-2.7.9A5,5,0,0,0,68.3,95Z" fill="#fff"/><path d="M87.8,89h2.9l.3,3.3h0a8,8,0,0,1,2.8-2.7,7.1,7.1,0,0,1,3.5-1l1.6.2,1.3.4-.8,3-1.2-.4H96.8a5.8,5.8,0,0,0-3,.9,7.7,7.7,0,0,0-2.5,3v8.1H87.8Z" fill="#fff"/><path d="M106.8,96.4a8.8,8.8,0,0,1,.6-3.3,8.1,8.1,0,0,1,1.7-2.4,6.1,6.1,0,0,1,2.4-1.5,7.1,7.1,0,0,1,2.8-.6,6.5,6.5,0,0,1,2.9.6,5.5,5.5,0,0,1,2.2,1.4,6.1,6.1,0,0,1,1.3,2.2,8.7,8.7,0,0,1,.5,2.8c0,.4-.1.7-.1,1a1.5,1.5,0,0,1-.1.7H110.3a4.1,4.1,0,0,0,1.6,3.1,5.3,5.3,0,0,0,3.4,1,7.6,7.6,0,0,0,2.1-.3l2-.9,1.2,2.2a11.1,11.1,0,0,1-2.7,1.2,10.6,10.6,0,0,1-3.1.5,10.1,10.1,0,0,1-3.1-.5,9.3,9.3,0,0,1-2.6-1.5,7.4,7.4,0,0,1-1.7-2.5A7.9,7.9,0,0,1,106.8,96.4ZM118,95a3.7,3.7,0,0,0-.9-2.7,3.3,3.3,0,0,0-2.7-1,4.4,4.4,0,0,0-2.7.9,5,5,0,0,0-1.4,2.8Z" fill="#fff"/><path d="M127.5,96.4a11.4,11.4,0,0,1,.5-3.3,9.7,9.7,0,0,1,1.5-2.4,6.2,6.2,0,0,1,2.1-1.5,5.3,5.3,0,0,1,2.4-.6,5.6,5.6,0,0,1,2.3.5,6.8,6.8,0,0,1,1.8,1.3V82.6h3.4v21.1h-2.8l-.3-1.7h-.1a6.2,6.2,0,0,1-2,1.5,5.3,5.3,0,0,1-2.4.6,5.7,5.7,0,0,1-4.6-2,8.4,8.4,0,0,1-1.3-2.5A10.4,10.4,0,0,1,127.5,96.4Zm3.6,0a6,6,0,0,0,.9,3.6,3.1,3.1,0,0,0,2.6,1.2,4.2,4.2,0,0,0,3.4-1.7V92.8a5.9,5.9,0,0,0-1.6-1,4.1,4.1,0,0,0-1.6-.3,3.2,3.2,0,0,0-1.4.3,2.9,2.9,0,0,0-1.2,1,3.6,3.6,0,0,0-.8,1.5A6.6,6.6,0,0,0,131.1,96.4Z" fill="#fff"/><path d="M170.4,82.6h3.4v8a7.4,7.4,0,0,1,2.2-1.4,5.3,5.3,0,0,1,2.4-.6,5.1,5.1,0,0,1,2.5.6,4,4,0,0,1,1.9,1.5,7.1,7.1,0,0,1,1.2,2.3,10.1,10.1,0,0,1,.4,3.1,11.6,11.6,0,0,1-.5,3.4,8.7,8.7,0,0,1-1.5,2.5,6.5,6.5,0,0,1-2.1,1.6,6.9,6.9,0,0,1-2.4.5,5.9,5.9,0,0,1-2.2-.5,6.2,6.2,0,0,1-2.1-1.5h-.1l-.3,1.6h-2.7Zm3.4,17.3a5,5,0,0,0,1.7,1l1.6.3a3.4,3.4,0,0,0,2.6-1.2,5.9,5.9,0,0,0,1-3.8,5.9,5.9,0,0,0-.8-3.5,2.9,2.9,0,0,0-2.6-1.2,3.8,3.8,0,0,0-1.7.4,5.5,5.5,0,0,0-1.8,1.4Z" fill="#fff"/><path d="M192.2,106.9h.6a3.1,3.1,0,0,0,2.2-.7,4.6,4.6,0,0,0,1.3-1.8l.4-.9L190.1,89h3.4l3.1,7.2.8,2.1a20.9,20.9,0,0,0,.8,2.3h.1l.7-2.2c.3-.7.5-1.5.8-2.2l2.7-7.2h3.2l-6.1,15.4a11.3,11.3,0,0,1-1.1,2.2,4.7,4.7,0,0,1-1.4,1.7,4.2,4.2,0,0,1-1.8,1.1,5.3,5.3,0,0,1-2.3.4h-1.1l-1-.2.7-2.7Z" fill="#fff"/><path d="M456.1,104.1h-4.2c-.2,0-.3-.1-.4-.3L441,89.9l-.4-.5v14.7h-4.3V81.8h3.9a.8.8,0,0,1,.7.4l10.3,13.7.5.7V81.8h4.4Z" fill="#fff"/><path d="M324.1,81.7H328c.4,0,.6.2.9.5L339.2,96l.4.5V81.8H344v22.3h-3.9c-.4,0-.6-.2-.9-.5L328.9,89.9l-.4-.5v14.7h-4.4Z" fill="#fff"/><path d="M261,104.1h-6c-.4,0-.6-.1-.7-.4l-6-10.4a.5.5,0,0,1,0-.7l6-10.4c.1-.3.3-.4.7-.4h12c.3,0,.5,0,.7.3l6,10.5a.5.5,0,0,1,0,.7c-2,3.5-4,7-6.1,10.5-.1.3-.3.3-.6.3Zm0-17.9h-3.6a.5.5,0,0,0-.5.3l-3.6,6.2v.6l3.6,6.1a.5.5,0,0,0,.5.3h7.1a.7.7,0,0,0,.6-.3l3.5-6.2a.5.5,0,0,0,0-.5c-1.1-2.1-2.3-4.1-3.5-6.2-.2-.3-.3-.3-.6-.3Z" fill="#fff"/><path d="M419,104.1h-5.9c-.4,0-.6,0-.7-.3-2-3.5-4-7-6.1-10.5a.8.8,0,0,1,0-.7c2.1-3.5,4.1-7,6.1-10.5a.5.5,0,0,1,.6-.4h12.2a.5.5,0,0,1,.5.4c2,3.5,4,7,6.1,10.5a.8.8,0,0,1,0,.7l-6.1,10.5c-.1.3-.3.3-.6.3Zm.1-4.4h3.5a.7.7,0,0,0,.6-.3c1.1-2.1,2.3-4.1,3.5-6.1a.8.8,0,0,0,0-.7l-3.5-6.1a.7.7,0,0,0-.6-.4c-2.4.1-4.7.1-7,0a.5.5,0,0,0-.6.4l-3.6,6.1a.9.9,0,0,0,0,.7c1.2,2,2.4,4,3.5,6.1a.7.7,0,0,0,.6.3Z" fill="#fff"/><path d="M318,99.7v4.4H301.1V81.8H318v4.3H305.5v4.6h6.6v4.5h-6.6v4.5Z" fill="#fff"/><path d="M244.4,81.8v4.4h-9.5a.7.7,0,0,0-.6.3l-3.5,6.1a.6.6,0,0,0,0,.7l3.5,6a.7.7,0,0,0,.7.4h9.4v4.4h-12a.8.8,0,0,1-.7-.4l-5.9-10.3c-.2-.3-.3-.6,0-.9l5.9-10.3c.2-.3.3-.4.6-.4h12.1Z" fill="#fff"/><path d="M277.5,104.1V99.7h9.4a.8.8,0,0,0,.8-.4l3.5-6a.9.9,0,0,0,0-.7c-1.2-2-2.4-4-3.5-6.1-.2-.3-.4-.3-.7-.3h-9.5V81.8h12c.4,0,.6,0,.7.3l6.1,10.5a.6.6,0,0,1,0,.6c-2,3.6-4.1,7.1-6.1,10.6l-.6.3H277.5Z" fill="#fff"/><path d="M370.6,104.1h-4.8c-.1,0-.3-.2-.4-.4-1.3-2.9-2.5-5.8-3.8-8.8l-2-4.5c0-.1-.1-.2-.2-.4s-.1.4-.2.5c-1.9,4.4-3.8,8.8-5.6,13.2a.9.9,0,0,1-.8.5h-4.5a.4.4,0,0,1,.1-.3l9.7-21.7a.5.5,0,0,1,.5-.4h1.6a.5.5,0,0,1,.6.4l7.9,17.7,1.7,3.8Z" fill="#fff"/><path d="M391.3,81.8v4.3H383v18h-4.4V86.2h-8.3V81.8Z" fill="#fff"/><path d="M396.7,104.1V81.8h4.4v22.3Z" fill="#fff"/></g></g></svg>